<?xml version="1.0" encoding="UTF-8" standalone="no"?>
<!-- Created with Inkscape (http://www.inkscape.org/) -->

<svg
        width="21.698999mm"
        height="21.698999mm"
        viewBox="0 0 21.698999 21.698999"
        version="1.1"
        id="svg1"
        xml:space="preserve"
        sodipodi:docname="den-square.svg"
        inkscape:version="1.4 (e7c3feb1, 2024-10-09)"
        xmlns:inkscape="http://www.inkscape.org/namespaces/inkscape"
        xmlns:sodipodi="http://sodipodi.sourceforge.net/DTD/sodipodi-0.dtd"
        xmlns:xlink="http://www.w3.org/1999/xlink"
        xmlns="http://www.w3.org/2000/svg"
><sodipodi:namedview
     id="namedview1"
     pagecolor="#ffffff"
     bordercolor="#000000"
     borderopacity="0.25"
     inkscape:showpageshadow="2"
     inkscape:pageopacity="0.0"
     inkscape:pagecheckerboard="0"
     inkscape:deskcolor="#d1d1d1"
     inkscape:document-units="mm"
     inkscape:zoom="2.6764387"
     inkscape:cx="-47.63793"
     inkscape:cy="45.20933"
     inkscape:window-width="1920"
     inkscape:window-height="1027"
     inkscape:window-x="0"
     inkscape:window-y="25"
     inkscape:window-maximized="1"
     inkscape:current-layer="svg1" />
    <defs
            id="defs1"><linearGradient
       id="linearGradient5"><stop
         style="stop-color:#000000;stop-opacity:1;"
         offset="0"
         id="stop5" /><stop
            style="stop-color:#121213;stop-opacity:1;"
            offset="0.4029882"
            id="stop8"/><stop
            style="stop-color:#2c2c30;stop-opacity:1;"
            offset="0.55474973"
            id="stop7"/><stop
            style="stop-color:#2c2c30;stop-opacity:1"
            offset="1"
            id="stop6"/></linearGradient>
        <linearGradient
                id="linearGradient2"><stop
         style="stop-color:#2b2b2f;stop-opacity:1;"
         offset="0"
         id="stop2" />
            <stop
                    style="stop-color:#1e1e21;stop-opacity:1"
                    offset="1"
                    id="stop3"/></linearGradient>
        <linearGradient
                xlink:href="#linearGradient2"
                id="linearGradient3"
                x1="70.243492"
                y1="78.887161"
                x2="70.183693"
                y2="99.590378"
                gradientUnits="userSpaceOnUse"/>
        <linearGradient
                xlink:href="#linearGradient5"
                id="linearGradient6"
                x1="70.370674"
                y1="77.695435"
                x2="70.370674"
                y2="99.76091"
                gradientUnits="userSpaceOnUse"/></defs>
    <g
            id="layer1"
            transform="translate(-59.312703,-78.028173)"><path
       style="font-size:17.7523px;font-family:Kefa;-inkscape-font-specification:Kefa;fill:#1d1d20;fill-opacity:1;stroke:url(#linearGradient6);stroke-width:0.821;stroke-dasharray:none;paint-order:normal"
       d="m 69.851563,86.443091 q -1.733814,0 -2.51403,1.213668 -0.765769,1.199229 -0.765769,4.161158 0,2.600714 0.736871,4.088914 0.736871,1.47374 2.485133,1.47374 0.924701,0 1.690469,-0.36122 0.765767,-0.37566 1.040287,-0.96804 0.288969,-0.60683 0.288969,-2.961918 V 87.194404 Q 72.293349,86.905439 71.54203,86.674268 70.805159,86.443091 69.851563,86.443091 Z m 3.366488,11.42872 q -1.31481,0.78021 -2.456237,1.11253 -1.141427,0.33231 -2.355097,0.33231 -2.456235,0 -3.785492,-1.47373 -1.31481,-1.47374 -1.31481,-5.114755 0,-4.016661 1.762711,-6.111692 1.762711,-2.109464 5.273684,-2.109464 0.838008,0 1.401499,0.08668 0.563488,0.08668 1.069184,0.216738 0,-1.069186 -0.05779,-2.282868 -0.04334,-1.228115 -0.202279,-1.733804 -0.144482,-0.505689 -0.505695,-0.650192 -0.346763,-0.144517 -0.895804,-0.144517 -0.187828,-0.447894 -0.187828,-0.881342 0,-0.447901 0.361209,-0.563497 0.361212,-0.115514 2.383994,-0.115514 1.141428,0 1.545984,0.115514 0.404557,0.101176 0.46235,0.404561 0.05779,0.288965 0.05779,1.011391 v 10.345085 q 0,5.519316 0.245624,6.429556 0.260072,0.91025 0.794664,0.79467 0.202279,0.33231 0.202279,0.65017 0,0.40456 -0.968046,0.76577 -0.953597,0.36121 -1.560432,0.36121 -0.361212,0 -0.606835,-0.26006 -0.245624,-0.24563 -0.664628,-1.18478 z"
       id="text1"
       aria-label="d" />
        <path
                style="font-size:17.7523px;font-family:Kefa;-inkscape-font-specification:Kefa;fill:url(#linearGradient3);fill-opacity:1;stroke:none;stroke-width:0.121;stroke-dasharray:none"
                d="m 69.836613,86.458041 q -1.733814,0 -2.51403,1.213668 -0.765769,1.199229 -0.765769,4.161158 0,2.600714 0.736871,4.088914 0.736871,1.47374 2.485133,1.47374 0.924701,0 1.690469,-0.36122 0.765767,-0.37566 1.040287,-0.96804 0.288969,-0.60683 0.288969,-2.961918 V 87.209354 Q 72.278399,86.920389 71.52708,86.689218 70.790209,86.458041 69.836613,86.458041 Z m 3.366488,11.42872 q -1.31481,0.78021 -2.456237,1.11253 -1.141427,0.33231 -2.355097,0.33231 -2.456235,0 -3.785492,-1.47373 -1.31481,-1.47374 -1.31481,-5.114755 0,-4.016661 1.762711,-6.111692 1.762711,-2.109464 5.273684,-2.109464 0.838008,0 1.401499,0.08668 0.563488,0.08668 1.069184,0.216738 0,-1.069186 -0.05779,-2.282868 -0.04334,-1.228115 -0.202279,-1.733804 -0.144482,-0.505689 -0.505695,-0.650192 -0.346763,-0.144517 -0.895804,-0.144517 -0.187828,-0.447894 -0.187828,-0.881342 0,-0.447901 0.361209,-0.563497 0.361212,-0.115514 2.383994,-0.115514 1.141428,0 1.545984,0.115514 0.404557,0.101176 0.46235,0.404561 0.05779,0.288965 0.05779,1.011391 v 10.345085 q 0,5.519316 0.245624,6.429556 0.260072,0.91025 0.794664,0.79467 0.202279,0.33231 0.202279,0.65017 0,0.40456 -0.968046,0.76577 -0.953597,0.36121 -1.560432,0.36121 -0.361212,0 -0.606835,-0.26006 -0.245624,-0.24563 -0.664628,-1.18478 z"
                id="path10"
                aria-label="d"/>
        <path
                id="path11"
                style="fill:#4c4c4f;fill-opacity:1;stroke:none;stroke-width:1.28729;stroke-dasharray:none;paint-order:normal"
                d="m 73.709434,78.438607 c -1.348521,0 -2.143543,0.03875 -2.384351,0.115756 -0.240806,0.07706 -0.361218,0.264672 -0.361218,0.563273 0,0.248152 0.04925,0.500255 0.141594,0.755509 0.04626,-0.347999 0.178347,-0.9689 0.538468,-1.014408 0.501913,-0.06343 3.312459,-0.02119 3.312459,-0.02119 0,0 0.633087,-0.03313 0.819072,1.343588 v -0.21084 c 0,-0.481617 -0.01935,-0.818665 -0.05788,-1.011308 -0.03853,-0.202257 -0.192799,-0.337176 -0.462504,-0.404626 -0.269704,-0.07701 -0.78469,-0.115756 -1.545642,-0.115756 z"/>
        <path
                id="path12"
                style="fill:#4c4c4f;fill-opacity:1;stroke:none;stroke-width:1.30278;stroke-dasharray:none;paint-order:normal"
                d="m 70.342714,84.506971 c -2.340648,0 -4.098439,0.703123 -5.273579,2.109432 -0.244821,0.290976 -0.462475,0.611502 -0.656291,0.958081 0.9018,-1.045931 2.720352,-2.750737 5.001245,-2.750737 3.288892,0 3.34915,0.407211 3.34915,0.407211 l -0.04806,-0.442867 c -0.308603,-0.07605 -0.630798,-0.141971 -0.971,-0.194304 -0.37566,-0.05779 -0.842793,-0.08682 -1.401465,-0.08682 z"/>
        <path
                id="path1"
                style="fill:#4c4c4f;stroke-width:1.021"
                d="m 72.680853,84.783209 c -0.378071,0.03903 -1.794174,-0.261236 -2.352846,-0.261236 -2.340649,0 -4.098439,0.703122 -5.27358,2.109432 -0.529228,0.629002 -0.938494,1.389066 -1.229382,2.277897 0.633222,-1.187738 2.46941,-3.966166 5.809981,-3.966166 2.850304,0 3.089763,0.650743 3.089763,0.650743 0,0 0.215443,-0.83745 -0.04394,-0.81067 z"/></g></svg>
