<?xml version="1.0" encoding="UTF-8" standalone="no"?>
<!-- Created with Inkscape (http://www.inkscape.org/) -->

<svg
        width="16mm"
        height="16mm"
        viewBox="0 0 19.182301 13.126191"
        version="1.1"
        id="svg5"
        xml:space="preserve"
        xmlns="http://www.w3.org/2000/svg"
><defs
     id="defs2" />
    <g
            id="layer1"
            transform="translate(-14.722845,-116.72118)"><path
       style="fill:#000000;stroke-width:0.264583"
       d="m 20.6734,129.74856 c -3.98935,-2.67653 -5.94559,-5.42706 -5.95054,-8.36663 -0.003,-1.83006 0.44991,-2.80873 1.76334,-3.80964 1.29559,-0.98732 3.67564,-1.05007 5.15478,-0.13592 l 0.96631,0.59722 1.25528,-0.66744 c 1.57632,-0.83814 3.07107,-0.85943 4.47593,-0.0637 1.60881,0.9112 2.25678,2.06361 2.25678,4.01369 0,2.06325 -0.86198,3.88508 -2.74828,5.80859 -1.20841,1.23226 -4.09755,3.39844 -4.98552,3.73799 -0.1848,0.0707 -1.16943,-0.43069 -2.18808,-1.11412 z m 2.86958,-1.45715 c 3.87099,-2.6815 5.78192,-5.52719 5.17868,-7.71194 -0.70156,-2.54085 -3.43919,-2.67434 -5.44065,-0.26529 l -0.62323,0.75016 -0.62324,-0.75016 c -1.93422,-2.32813 -4.3911,-2.33123 -5.36232,-0.007 -0.81385,1.94783 0.75687,4.729 4.08095,7.22582 0.97477,0.73219 1.81347,1.33239 1.86376,1.33379 0.0503,0.001 0.46702,-0.25762 0.92605,-0.5756 z"
       id="path5394" /></g></svg>
