<?xml version="1.0" encoding="UTF-8" standalone="no"?>
<!-- Created with Inkscape (http://www.inkscape.org/) -->

<svg
        width="16mm"
        height="16mm"
        viewBox="0 0 16.393686 15.584813"
        version="1.1"
        id="svg5"
        xml:space="preserve"
        xmlns="http://www.w3.org/2000/svg"
><defs
     id="defs2" />
    <g
            id="layer1"
            transform="translate(-21.714771,-145.4925)"><path
       style="fill:#000000;stroke-width:0.264583"
       d="m 28.318252,159.6221 v -1.45521 h -0.893731 c -2.009789,0 -4.12478,-1.47835 -5.094619,-3.56106 -1.561589,-3.35349 -0.03923,-7.39647 3.314158,-8.8015 0.667631,-0.27973 1.826001,-0.35421 4.52007,-0.29063 3.501031,0.0826 3.665734,0.11231 4.916157,0.88623 3.523158,2.18057 4.078026,7.24783 1.104919,10.09054 -0.929103,0.88836 -7.136191,4.58684 -7.697999,4.58684 -0.09293,0 -0.168955,-0.65485 -0.168955,-1.45521 z m 6.439768,-4.33079 c 1.069924,-0.99169 1.497732,-1.94558 1.497732,-3.33953 0,-3.43587 -2.564252,-5.12563 -7.327326,-4.82847 -1.934949,0.12071 -2.417014,0.25053 -3.327332,0.89602 -1.53212,1.0864 -2.100016,2.26284 -1.980327,4.10242 0.170085,2.61418 1.718781,4.05576 4.690849,4.3664 1.550934,0.16211 1.594136,0.18776 1.594136,0.9466 v 0.77997 l 2.05052,-1.11356 c 1.127787,-0.61246 2.388572,-1.42689 2.801748,-1.80985 z"
       id="path5392" /></g></svg>
