<?xml version="1.0" encoding="UTF-8" standalone="no"?>
<!-- Created with Inkscape (http://www.inkscape.org/) -->

<svg
        width="16mm"
        height="16mm"
        viewBox="0 0 19.182299 13.12619"
        version="1.1"
        id="svg5"
        xml:space="preserve"
        xmlns="http://www.w3.org/2000/svg"
><defs
     id="defs2" />
    <g
            id="layer1"
            transform="translate(-71.048453,-146.84129)"><path
       style="fill:#000000;stroke-width:0.264583"
       d="m 75.351263,159.34021 c -1.28644,-0.69801 -1.52468,-1.56918 -1.52468,-5.57531 v -3.63451 l -0.745,0.71375 -0.745,0.71376 -0.64406,-0.68989 -0.64407,-0.6899 1.84571,-1.66841 1.84571,-1.66841 1.79231,1.58901 c 0.98578,0.87395 1.79232,1.65836 1.79232,1.74314 0,0.0848 -0.26007,0.43096 -0.57792,0.7693 l -0.57791,0.61516 -0.74501,-0.71376 -0.745,-0.71375 v 3.43851 c 0,4.4888 -0.0372,4.43721 3.28569,4.55738 l 2.53515,0.0917 v 0.76821 0.76821 l -2.71198,-0.0106 c -1.88001,-0.007 -2.93417,-0.13116 -3.43626,-0.40359 z"
       id="path5400" />
        <path
                style="fill:#000000;stroke-width:0.264583"
                d="m 84.800413,158.29908 -1.84571,-1.66841 0.64407,-0.6899 0.64406,-0.68989 0.745,0.71376 0.745,0.71375 v -3.43851 c 0,-4.4888 0.0372,-4.43721 -3.28569,-4.55738 l -2.53514,-0.0917 v -0.76821 -0.76821 h 2.65897 c 4.56479,0 5.01394,0.53654 5.01394,5.98949 v 3.63451 l 0.745,-0.71375 0.74501,-0.71376 0.57791,0.61516 c 0.31785,0.33834 0.57792,0.68453 0.57792,0.7693 0,0.0848 -0.80654,0.86919 -1.79231,1.74314 l -1.79232,1.58901 z"
                id="path5398"/></g></svg>
