<?xml version="1.0" encoding="UTF-8" standalone="no"?>
<!-- Created with Inkscape (http://www.inkscape.org/) -->

<svg
        width="16mm"
        height="16mm"
        viewBox="0 0 19.182301 13.126191"
        version="1.1"
        id="svg5"
        xml:space="preserve"
        xmlns="http://www.w3.org/2000/svg"
><defs
     id="defs2" />
    <g
            id="layer1"
            transform="translate(-66.31403,-116.04104)"><path
       style="fill:#000000;stroke-width:0.264583"
       d="m 72.66403,122.99251 v -3.76036 l -1.32421,1.30431 -1.32424,1.30431 -0.58939,-0.58938 -0.58938,-0.58939 2.3105,-2.31048 2.31047,-2.31048 2.31047,2.31048 2.3105,2.31048 -0.58938,0.58939 -0.58939,0.58938 -1.32424,-1.30431 -1.32421,-1.30431 v 3.76036 3.76037 h -0.79375 -0.79375 z"
       id="path5402" />
        <path
                style="fill:#000000;stroke-width:0.264583"
                d="m 66.8432,130.19246 c -0.42838,-0.42837 -0.52917,-0.88194 -0.52917,-2.38125 v -1.85208 h 0.78055 c 0.76464,0 0.78216,0.031 0.85989,1.52135 l 0.0794,1.52136 h 5.42396 5.42396 l 0.0793,-1.52136 c 0.0777,-1.49035 0.0953,-1.52135 0.85989,-1.52135 h 0.78055 v 1.85208 c 0,2.98154 0.17457,2.91042 -7.14375,2.91042 -5.73264,0 -6.11609,-0.0307 -6.61458,-0.52917 z"
                id="path5396"/></g></svg>
